<mxfile host="app.diagrams.net" modified="2021-07-29T12:54:26.086Z" agent="5.0 (Windows NT 10.0; Win64; x64) AppleWebKit/537.36 (KHTML, like Gecko) Chrome/92.0.4515.115 Safari/537.36" etag="YnmCN2urvpAwkREmkGhL" version="14.9.1" type="github">
  <diagram id="YLtcainnFTUNkcoA6CSY" name="Page-1">
    <mxGraphModel dx="1038" dy="592" grid="1" gridSize="10" guides="1" tooltips="1" connect="1" arrows="1" fold="1" page="1" pageScale="1" pageWidth="850" pageHeight="1100" math="0" shadow="0">
      <root>
        <mxCell id="0" />
        <mxCell id="1" parent="0" />
        <mxCell id="49MzPBeOzlvqZ0RAgaE--1" value="" style="rounded=0;whiteSpace=wrap;html=1;strokeColor=#82b366;dashed=1;strokeWidth=2;fillColor=#d5e8d4;allowArrows=0;connectable=0;container=0;opacity=30;shadow=0;sketch=1;" vertex="1" parent="1">
          <mxGeometry x="40" y="40" width="770" height="260" as="geometry" />
        </mxCell>
        <mxCell id="49MzPBeOzlvqZ0RAgaE--2" value="Préparation des données" style="text;align=center;verticalAlign=middle;rounded=0;dashed=1;opacity=30;fontStyle=1;fontSize=20;fontColor=#97D077;labelBackgroundColor=none;labelBorderColor=none;html=1;labelPosition=center;verticalLabelPosition=middle;fontFamily=Georgia;" vertex="1" parent="1">
          <mxGeometry x="60" width="280" height="40" as="geometry" />
        </mxCell>
        <mxCell id="49MzPBeOzlvqZ0RAgaE--3" value="" style="rounded=0;whiteSpace=wrap;html=1;strokeColor=#6c8ebf;dashed=1;strokeWidth=2;fillColor=#dae8fc;allowArrows=0;connectable=0;container=0;opacity=30;sketch=1;" vertex="1" parent="1">
          <mxGeometry x="40" y="360" width="770" height="400" as="geometry" />
        </mxCell>
        <mxCell id="49MzPBeOzlvqZ0RAgaE--4" value="Traitement des données" style="text;align=center;verticalAlign=middle;rounded=0;dashed=1;opacity=30;fontStyle=1;fontSize=20;labelBackgroundColor=none;labelBorderColor=none;html=1;labelPosition=center;verticalLabelPosition=middle;fontFamily=Georgia;fontColor=#7EA6E0;" vertex="1" parent="1">
          <mxGeometry x="60" y="320" width="280" height="40" as="geometry" />
        </mxCell>
        <mxCell id="49MzPBeOzlvqZ0RAgaE--5" value="" style="rounded=0;whiteSpace=wrap;html=1;strokeColor=#d6b656;dashed=1;strokeWidth=2;fillColor=#fff2cc;allowArrows=0;connectable=0;container=0;opacity=30;sketch=1;" vertex="1" parent="1">
          <mxGeometry x="40" y="820" width="770" height="260" as="geometry" />
        </mxCell>
        <mxCell id="49MzPBeOzlvqZ0RAgaE--6" value="Visualisation des données" style="text;align=center;verticalAlign=middle;rounded=0;dashed=1;opacity=30;fontStyle=1;fontSize=20;labelBackgroundColor=none;labelBorderColor=none;html=1;labelPosition=center;verticalLabelPosition=middle;fontFamily=Georgia;fontColor=#FFD966;" vertex="1" parent="1">
          <mxGeometry x="60" y="780" width="280" height="40" as="geometry" />
        </mxCell>
      </root>
    </mxGraphModel>
  </diagram>
</mxfile>
